<svg xmlns="http://www.w3.org/2000/svg" width="1600" height="900" viewBox="0 0 1600 900" role="img" aria-labelledby="title desc">
  <title id="title">מצגת השתלמות מפגש שני</title>
  <desc id="desc">תמונת שער לחיצה למצגת מפגש שני</desc>
  <defs>
    <linearGradient id="bg" x1="0" y1="0" x2="1" y2="1">
      <stop offset="0" stop-color="#0f172a"/>
      <stop offset="0.45" stop-color="#312e81"/>
      <stop offset="1" stop-color="#2563eb"/>
    </linearGradient>
    <radialGradient id="g1" cx="20%" cy="15%" r="45%">
      <stop offset="0" stop-color="#67e8f9" stop-opacity="0.6"/>
      <stop offset="1" stop-color="#67e8f9" stop-opacity="0"/>
    </radialGradient>
    <radialGradient id="g2" cx="85%" cy="85%" r="45%">
      <stop offset="0" stop-color="#facc15" stop-opacity="0.45"/>
      <stop offset="1" stop-color="#facc15" stop-opacity="0"/>
    </radialGradient>
    <filter id="shadow" x="-20%" y="-20%" width="140%" height="140%">
      <feDropShadow dx="0" dy="16" stdDeviation="18" flood-color="#020617" flood-opacity="0.35"/>
    </filter>
  </defs>

  <rect width="1600" height="900" rx="56" fill="url(#bg)"/>
  <rect width="1600" height="900" rx="56" fill="url(#g1)"/>
  <rect width="1600" height="900" rx="56" fill="url(#g2)"/>

  <g opacity="0.18" stroke="#ffffff" stroke-width="2" fill="none">
    <path d="M120 760 L420 430 L670 650 L960 310 L1440 740"/>
    <circle cx="420" cy="430" r="60"/>
    <circle cx="960" cy="310" r="78"/>
    <path d="M230 210 H450 M340 100 V320"/>
    <path d="M1180 170 h240 v240 h-240z"/>
  </g>

  <g filter="url(#shadow)">
    <rect x="130" y="105" width="1340" height="690" rx="44" fill="#ffffff" opacity="0.96"/>
    <rect x="175" y="150" width="1250" height="600" rx="32" fill="#eef2ff"/>
  </g>

  <g font-family="Arial, Assistant, Heebo, sans-serif" text-anchor="middle" direction="rtl">
    <text x="800" y="285" font-size="48" font-weight="900" fill="#1e3a8a">השתלמות מספר 215195</text>
    <text x="800" y="405" font-size="88" font-weight="900" fill="#172554">מצגת השתלמות</text>
    <text x="800" y="510" font-size="88" font-weight="900" fill="#7c3aed">מפגש שני</text>
    <text x="800" y="610" font-size="34" font-weight="800" fill="#334155">עדכון תוכנית הלימודים במתמטיקה</text>
  </g>

  <g font-family="Arial, Assistant, Heebo, sans-serif" text-anchor="middle">
    <rect x="525" y="675" width="550" height="82" rx="41" fill="#16a34a"/>
    <text x="800" y="728" font-size="34" font-weight="900" fill="#ffffff">לחץ לפתיחת המצגת</text>
  </g>

  <circle cx="250" cy="225" r="18" fill="#facc15" opacity="0.95"/>
  <circle cx="1360" cy="665" r="22" fill="#06b6d4" opacity="0.95"/>
  <circle cx="1290" cy="230" r="14" fill="#a78bfa" opacity="0.95"/>
  <circle cx="300" cy="660" r="16" fill="#22c55e" opacity="0.95"/>
</svg>
